# xmcd
#
# Track frame offsets:
#  183
#  11990
#  23738
#  34593
#  45173
#  55298
#  64988
#  77343
#  89483
#  103288
#  116165
#  133803
#  148743
#  157960
#
# Disc length: 2287 seconds
#
# Revision: 0
# Processed by: cddbd v1.5.1PL2 Copyright (c) Steve Scherf et al.
# Submitted via: Collectorz.com_Music_Collector 6.9
#
DISCID=bc08ed0e
DTITLE=variés - Cette année la 1956
DYEAR=1900
DGENRE=
TTITLE0=The Platters - Only you
TTITLE1=Gene Vincent and his blue caps - Be bop a lula
TTITLE2=Little Richard - Tutti Fruttu
TTITLE3=Fat Dominos - Blueberry hill
TTITLE4=Carl Perkins - Blue suede shoes
TTITLE5=Little Richard - Long tall sally
TTITLE6=The Platters - My prayer
TTITLE7=Henry Coding avec les calypso boys - Va t'faire cuire ub oeuf man
TTITLE8=Dario Moreno - Quand elle danse
TTITLE9=Boris Vian - J'suis snob
TTITLE10=Georges Brassens - Je me suis fait tout petit
TTITLE11=Eddie et Tania Constantine - L'homme et l'enfant
TTITLE12=Jacqueline François - Que sera sera
TTITLE13=Georges Brassens - Les amoureux des bancs publics
EXTD=
EXTT0=
EXTT1=
EXTT2=
EXTT3=
EXTT4=
EXTT5=
EXTT6=
EXTT7=
EXTT8=
EXTT9=
EXTT10=
EXTT11=
EXTT12=
EXTT13=
PLAYORDER=
